<svg id="icon-funds" viewBox="0 0 32 32">
<path d="M31.294 13.917c-0.106-0.006-0.206 0-0.313 0-3.531 0-7.056 0-10.588 0-0.112 0-0.225 0.031-0.337-0.025 0.038-0.119 0.137-0.181 0.219-0.257 2.419-2.428 4.844-4.85 7.262-7.271 0.5-0.501 0.419-0.494 0.906-0.013 0.081 0.081 0.163 0.163 0.256 0.225 0.35 0.225 0.762 0.119 0.969-0.238 0.056-0.1 0.1-0.207 0.131-0.319 0.456-1.708 0.925-3.423 1.369-5.131 0.119-0.451-0.050-0.745-0.481-0.889-0.125 0-0.25 0-0.375 0-0.194 0.069-0.406 0.050-0.606 0.106-0.994 0.275-1.988 0.544-2.988 0.807-0.556 0.15-1.106 0.288-1.656 0.444-0.656 0.188-0.806 0.77-0.331 1.264 0.075 0.075 0.15 0.15 0.219 0.219 0.281 0.282 0.281 0.282 0 0.569-2.056 2.059-4.106 4.111-6.163 6.17-0.288 0.288-0.288 0.288-0.588-0.012-1.85-1.852-3.694-3.698-5.544-5.55-0.125-0.125-0.244-0.257-0.4-0.344-0.313-0.175-0.625-0.15-0.894 0.088-0.094 0.081-0.181 0.175-0.269 0.263-3.181 3.166-6.369 6.351-9.537 9.543-0.244 0.244-0.488 0.382-0.844 0.369-0.412-0.019-0.581 0.125-0.713 0.507 0 5.713 0 11.433 0 17.146 0.081 0.275 0.244 0.444 0.55 0.407 10.3 0 20.6 0 30.906 0 0.306 0.038 0.469-0.131 0.544-0.407 0-5.713 0-11.432 0-17.146-0.131-0.394-0.288-0.507-0.706-0.526zM3.269 13.723c2.794-2.797 5.587-5.588 8.369-8.391 0.181-0.181 0.263-0.194 0.45-0.006 1.919 1.94 3.856 3.867 5.781 5.801 0.494 0.494 0.756 0.494 1.256-0.006 2.406-2.409 4.819-4.825 7.225-7.234 0.669-0.67 0.675-0.801 0.019-1.521 1.087-0.294 2.15-0.576 3.256-0.876-0.294 1.101-0.581 2.171-0.869 3.248-0.8-0.657-0.837-0.651-1.575 0.081-2.819 2.822-5.644 5.644-8.456 8.479-0.181 0.181-0.262 0.194-0.45 0.006-1.906-1.927-3.825-3.842-5.738-5.757-0.556-0.557-0.775-0.551-1.337 0.012-2.075 2.077-4.156 4.155-6.231 6.239-0.131 0.131-0.263 0.206-0.456 0.2-0.475-0.019-0.956-0.006-1.487-0.006 0.094-0.106 0.169-0.194 0.244-0.269zM17.137 13.979c-3.512 0-7.019 0-10.587 0 1.262-1.264 2.494-2.49 3.719-3.723 0.488-0.488 0.975-0.97 1.456-1.458 0.094-0.094 0.15-0.144 0.269-0.019 1.706 1.721 3.425 3.442 5.138 5.156 0 0 0 0.012 0.006 0.044zM17.95 26.013c1.456-0.006 2.913-0.006 4.375 0 0.544 0 0.931 0.382 0.931 0.882-0.006 0.501-0.394 0.864-0.944 0.87-0.731 0.006-1.456 0-2.188 0-0.719 0-1.438 0-2.156 0-0.569 0-0.962-0.375-0.962-0.882 0-0.501 0.387-0.87 0.944-0.87zM15.975 25.024c-1.106-0.006-1.994-0.895-2-2.009-0.006-1.12 0.894-2.027 2.019-2.021 1.125 0 2.019 0.895 2.013 2.021 0 1.12-0.906 2.015-2.031 2.009zM22.263 30.768c-0.719 0-1.438 0-2.156 0-0.706 0-1.419 0-2.125 0-0.575 0-0.975-0.357-0.981-0.864-0.006-0.519 0.394-0.889 0.988-0.889 1.425 0 2.85 0 4.281 0 0.581 0 0.975 0.357 0.981 0.864 0.006 0.519-0.4 0.882-0.987 0.889zM29.781 30.768c-0.731 0.006-1.456 0-2.188 0-0.706 0-1.419 0-2.125 0-0.575 0-0.969-0.363-0.969-0.876s0.394-0.876 0.969-0.876c1.438-0.006 2.875-0.006 4.313 0 0.575 0 0.969 0.363 0.969 0.876 0 0.507-0.4 0.87-0.969 0.876zM29.769 27.765c-0.719 0-1.438 0-2.156 0-0.706 0-1.419 0-2.125 0-0.594 0-0.994-0.363-0.988-0.889 0.006-0.507 0.4-0.864 0.981-0.864 1.425 0 2.85 0 4.281 0 0.594 0 0.994 0.363 0.988 0.882-0.006 0.513-0.4 0.864-0.981 0.87zM29.769 24.761c-0.719 0-1.438 0-2.156 0s-1.438 0-2.156 0c-0.569 0-0.962-0.375-0.956-0.882 0.006-0.501 0.394-0.864 0.944-0.864 1.45-0.006 2.894-0.006 4.344 0 0.569 0 0.962 0.375 0.956 0.882 0 0.507-0.4 0.857-0.975 0.864zM30.75 21.933c-0.369-0.138-0.731-0.2-1.106-0.175-0.206 0.013-0.144-0.131-0.144-0.232-0.006-0.688 0-1.377 0-2.065 0-0.507-0.206-0.726-0.706-0.763-0.831-0.063-1.425-0.651-1.488-1.483-0.038-0.501-0.256-0.713-0.756-0.713-2.544 0-5.081 0-7.625 0-0.456 0-0.737 0.244-0.737 0.626s0.288 0.626 0.737 0.626c2.3 0 4.606 0.006 6.906-0.006 0.206 0 0.294 0.044 0.363 0.257 0.294 0.901 0.906 1.508 1.8 1.802 0.213 0.069 0.263 0.156 0.256 0.363-0.019 0.451-0.012 0.895 0 1.345 0.006 0.188-0.044 0.244-0.238 0.244-0.831-0.012-1.669 0.019-2.5-0.012-1.712-0.063-2.806 1.708-2 3.166 0.025 0.044 0.050 0.088 0.006 0.181-0.625-0.419-1.337-0.332-2.031-0.338-0.894-0.006-1.788 0-2.731 0 0.55-0.957 0.65-1.915 0.288-2.897-0.531-1.458-2.081-2.353-3.588-2.084-1.588 0.275-2.725 1.614-2.738 3.216-0.012 1.558 1.088 2.916 2.613 3.216 0.15 0.031 0.35 0.006 0.444 0.094 0.106 0.1-0.025 0.288-0.031 0.444-0.025 0.551 0.144 1.039 0.494 1.521-0.131 0-0.225 0-0.313 0-3.25 0-6.5 0-9.75 0.006-0.225 0-0.306-0.063-0.381-0.275-0.3-0.882-0.9-1.483-1.787-1.783-0.194-0.063-0.275-0.125-0.269-0.35 0.013-1.896 0.013-3.798 0-5.694 0-0.194 0.038-0.282 0.237-0.35 0.912-0.294 1.525-0.914 1.825-1.821 0.063-0.194 0.144-0.244 0.344-0.244 2.269 0.006 4.544 0.006 6.812 0.006 0.106 0 0.213 0.006 0.313-0.006 0.313-0.050 0.544-0.319 0.538-0.632s-0.244-0.569-0.563-0.607c-0.094-0.013-0.188-0.006-0.281-0.006-2.469 0-4.937 0-7.406 0-0.644 0-0.819 0.156-0.869 0.788-0.063 0.72-0.675 1.333-1.4 1.395-0.619 0.050-0.788 0.232-0.788 0.839 0 2.328 0 4.649 0 6.977 0 0.569 0.188 0.763 0.756 0.807 0.769 0.063 1.381 0.67 1.437 1.439 0.044 0.569 0.244 0.763 0.806 0.763 3.325 0 6.644 0 9.969-0.006 0.225 0 0.331 0.025 0.294 0.294-0.050 0.325 0.063 0.638 0.169 0.964-0.119 0-0.225 0-0.325 0-4.675 0-9.35 0-14.031 0.006-0.25 0-0.325-0.044-0.325-0.313 0.012-4.962 0.012-9.924 0-14.893 0-0.294 0.094-0.325 0.35-0.325 9.612 0.006 19.225 0.006 28.837 0 0.244 0 0.331 0.037 0.331 0.313-0.025 2.115-0.019 4.23-0.019 6.376z"></path>
<path d="M8.4 23.635c-0.269 0-0.537 0.006-0.812 0-0.375-0.013-0.644-0.269-0.65-0.613-0.006-0.363 0.263-0.626 0.663-0.632 0.519-0.006 1.038-0.006 1.556 0 0.381 0.006 0.644 0.263 0.65 0.613 0.006 0.363-0.269 0.626-0.663 0.632-0.244 0-0.494 0-0.744 0z"></path>
<path d="M16.625 17.146c-0.006 0.35-0.3 0.62-0.656 0.607-0.338-0.013-0.6-0.3-0.594-0.638 0.006-0.332 0.294-0.613 0.625-0.613 0.344 0.006 0.631 0.3 0.625 0.645z"></path>
</svg>